<svg xmlns="http://www.w3.org/2000/svg" viewBox="0 0 147 37" width="147" height="37">
	<style>
		tspan { white-space:pre }
		.shp0 { fill: #565656 } 
	</style>
	<g id="Our team">
		<g id="2">
			<g id="social">
				<path id="Forma 1" class="shp0" d="M128.5 0C118.28 0 110 8.29 110 18.51C110 28.73 118.28 37.01 128.5 37.01C138.71 37.01 146.99 28.73 146.99 18.51C146.99 8.28 138.71 0 128.5 0ZM123.87 27.47L119.25 27.47L119.25 11.28L123.87 11.28L123.87 27.47ZM121.7 10.28C120.51 10.28 119.54 9.31 119.54 8.11C119.54 6.92 120.51 5.94 121.7 5.94C122.9 5.95 123.87 6.92 123.87 8.11C123.87 9.31 122.9 10.28 121.7 10.28ZM140.06 27.47L135.43 27.47L135.43 17.46C135.43 16.29 135.1 15.46 133.66 15.46C131.27 15.46 130.81 17.46 130.81 17.46L130.81 27.47L126.18 27.47L126.18 11.28L130.81 11.28L130.81 12.82C131.47 12.32 133.12 11.28 135.43 11.28C136.93 11.28 140.06 12.18 140.06 17.6L140.06 27.47Z" />
				<path id="Forma 1" class="shp0" d="M18.5 0C8.28 0 0 8.28 0 18.5C0 28.72 8.28 37 18.5 37C28.72 37 37 28.72 37 18.5C37 8.28 28.72 0 18.5 0ZM26.02 15.16C26.03 15.31 26.03 15.47 26.03 15.63C26.03 20.44 22.37 25.99 15.67 25.99C13.61 25.99 11.7 25.39 10.08 24.36C10.37 24.39 10.66 24.41 10.95 24.41C12.66 24.41 14.23 23.83 15.48 22.85C13.88 22.82 12.54 21.77 12.07 20.32C12.3 20.36 12.52 20.38 12.76 20.38C13.09 20.38 13.41 20.34 13.72 20.25C12.05 19.92 10.8 18.45 10.8 16.68C10.8 16.67 10.8 16.65 10.8 16.64C11.29 16.91 11.85 17.07 12.45 17.09C11.47 16.44 10.83 15.32 10.83 14.06C10.83 13.39 11.01 12.77 11.32 12.23C13.12 14.43 15.8 15.88 18.83 16.03C18.77 15.77 18.73 15.49 18.73 15.2C18.73 13.19 20.37 11.56 22.38 11.56C23.43 11.56 24.37 12 25.04 12.71C25.87 12.55 26.65 12.24 27.35 11.83C27.08 12.68 26.5 13.39 25.75 13.84C26.49 13.75 27.19 13.56 27.84 13.27C27.35 14 26.74 14.64 26.02 15.16Z" />
				<path id="Forma 1" class="shp0" d="M72.5 0C62.28 0 54 8.29 54 18.51C54 28.73 62.28 37.01 72.5 37.01C82.71 37.01 90.99 28.73 90.99 18.51C90.99 8.28 82.71 0 72.5 0ZM77.28 18.5L74.25 18.51L74.24 29.61L70.08 29.61L70.08 18.51L67.31 18.51L67.31 14.68L70.08 14.68L70.08 12.42C70.08 9.3 70.93 7.4 74.6 7.4L77.66 7.4L77.66 11.23L75.75 11.23C74.32 11.23 74.25 11.77 74.25 12.76L74.24 14.68L77.68 14.68L77.28 18.5Z" />
			</g>
		</g>
	</g>
</svg>