<svg xmlns="http://www.w3.org/2000/svg" viewBox="0 0 102 116" width="102" height="116">
	<style>
		tspan { white-space:pre }
		.shp0 { fill: #fc635e } 
	</style>
	<g id="What can you receive">
		<g id="left">
			<g id="2">
				<path id="Фигура 3" class="shp0" d="M0.75 29L50.98 0L101.2 29L101.2 87L50.98 116L0.75 87L0.75 29Z" />
				<path id="Фигура 3 copy" class="shp0" d="M0.75 29L50.98 0L101.2 29L101.2 87L50.98 116L0.75 87L0.75 29Z" />
				<path id="Forma 1" class="shp0" d="M56.91 74.94C56.21 74.43 56.14 73.66 56.14 73.66L55.88 72L47.57 72L47.31 73.66C47.31 73.66 47.24 74.43 46.54 74.94C45.85 75.45 45.3 75.89 45.85 75.97C46.38 76.04 51.36 75.97 51.72 75.97C52.09 75.97 57.07 76.04 57.6 75.97C58.15 75.89 57.6 75.45 56.91 74.94ZM42.37 61.63C44.59 61.61 44.86 61.08 45.59 58.85C46.92 55.33 52.93 59.77 49.21 61.31C45.48 62.85 40.15 61.65 42.37 61.63ZM65.12 38.45C64.04 37.59 62.26 38.01 61.14 39.41L49.75 55.59C48.63 56.98 48.63 56.72 49.71 57.58C50.79 58.45 50.53 58.51 51.65 57.12L65.03 42.55C66.16 41.16 66.2 39.32 65.12 38.45ZM62.19 40.39C62.19 40.39 62.03 40.2 61.47 39.75C62.3 38.4 63.94 38.64 63.94 38.64C62.39 39.56 62.19 40.39 62.19 40.39ZM70.17 43.92L65.16 43.92L62.95 46.33L69.37 46.33L69.37 65.58L34.08 65.58L34.08 46.33L54.61 46.33L56.3 43.92L33.28 43.92C32.4 43.92 31.68 44.64 31.68 45.53L31.68 68.79C31.68 69.67 32.4 70.39 33.28 70.39L70.17 70.39C71.05 70.39 71.77 69.67 71.77 68.79L71.77 45.53C71.77 44.64 71.05 43.92 70.17 43.92Z" />
			</g>
		</g>
	</g>
</svg>