<svg xmlns="http://www.w3.org/2000/svg" viewBox="0 0 101 116" width="101" height="116">
	<style>
		tspan { white-space:pre }
		.shp0 { fill: #fe8682 } 
		.shp1 { fill: #fc635e } 
		.shp2 { fill: #ffffff } 
	</style>
	<g id="What can you receive">
		<g id="left">
			<g id="1">
				<g id="Группа 3">
					<path id="Фигура 3" class="shp0" d="M0.15 29L50.25 0L100.36 29L100.36 87L50.25 116L0.15 87L0.15 29Z" />
					<path id="Фигура 3 копия" class="shp1" d="M5.16 32L50.25 6L95.35 32L95.35 84L50.25 110L5.16 84L5.16 32Z" />
				</g>
				<path id="Forma 1" class="shp2" d="M59.26 58.77C61.63 55.98 63.2 53.28 64.23 50.81C64.58 49.97 65.05 48.64 65.27 47.84C65.38 47.43 65.49 46.93 65.6 46.38C65.63 46.26 65.64 46.15 65.67 46.03C65.69 45.88 65.72 45.73 65.74 45.57C66.01 43.92 66.05 42.49 66 41.36C65.96 40.45 65.89 39.68 65.94 39.62C65.97 39.59 66 39.56 66.02 39.52C66.24 39.25 66.33 38.97 66.24 38.9C66.24 38.9 66.21 38.88 66.18 38.86C66.15 38.83 66.17 38.6 66.23 38.33C66.3 38.06 66.11 37.92 65.81 38.01C65.52 38.1 65.25 38.15 65.21 38.12L65.14 38.07C65.04 38 64.79 38.16 64.57 38.43C64.55 38.46 64.53 38.49 64.51 38.51C64.48 38.56 63.71 38.64 62.8 38.82C61.24 39.13 58.74 39.85 56.02 41.54C51.62 44.22 48.83 47.96 47.54 49.98C47.05 50.75 45.97 51.3 45.05 51.27C37.63 51.02 34.46 56.13 33.31 58.79C32.95 59.63 33.51 60.29 34.43 60.28C50.75 59.98 52.24 69.93 52.18 73.93C52.16 74.84 52.74 75.29 53.54 74.82C59.47 71.3 59.08 64.66 58.53 61.61C58.37 60.72 58.66 59.47 59.26 58.77ZM57.42 54.28C56.41 55.38 54.71 55.66 53.34 54.88C51.76 53.99 51.21 52.05 52.11 50.54C52.22 50.35 52.34 50.18 52.48 50.03C53.49 48.94 55.19 48.65 56.57 49.43C58.14 50.32 58.69 52.27 57.8 53.78C57.69 53.96 57.56 54.13 57.42 54.28ZM43.06 76.22C45.99 74.49 47.69 71.3 48.48 69.39C48.83 68.55 48.35 68.14 47.57 68.62C44.5 70.54 42.86 73.55 42.1 75.37C41.75 76.21 42.27 76.69 43.06 76.22ZM37.24 76.85C41.71 74.43 44.11 69.33 45.08 66.76C45.4 65.91 44.92 65.5 44.13 65.96C39.43 68.73 37.14 73.51 36.22 75.97C35.91 76.82 36.43 77.29 37.24 76.85ZM36.19 70.92C39.12 69.19 40.81 66.01 41.61 64.1C41.96 63.26 41.47 62.85 40.7 63.33C37.63 65.25 35.99 68.26 35.23 70.08C34.88 70.92 35.4 71.39 36.19 70.92Z" />
			</g>
		</g>
	</g>
</svg>