<svg xmlns="http://www.w3.org/2000/svg" viewBox="0 0 101 116" width="101" height="116">
	<style>
		tspan { white-space:pre }
		.shp0 { fill: #fe8682 } 
		.shp1 { fill: #fc635e } 
		.shp2 { fill: #ffffff } 
	</style>
	<g id="What can you receive">
		<g id="right">
			<g id="1">
				<path id="Фигура 3" class="shp0" d="M0.4 29L50.58 0L100.77 29L100.77 87L50.58 116L0.4 87L0.4 29Z" />
				<path id="Фигура 3 копия" class="shp1" d="M5.42 32L50.58 6L95.75 32L95.75 84L50.58 110L5.42 84L5.42 32Z" />
				<path id="Forma 1" class="shp2" d="M65.11 39L35.9 39C33.75 39 32 40.75 32 42.89L32 72.11C32 74.24 33.75 76 35.9 76L65.11 76C67.25 76 69 74.24 69 72.11L69 42.89C69 40.75 67.25 39 65.11 39ZM36.22 44.27L64.77 44.27L64.77 63.75L36.22 63.75L36.22 44.27ZM66.33 70.76L46.39 70.76C46.04 72.23 44.73 73.32 43.16 73.32C41.58 73.32 40.27 72.23 39.92 70.76L34.68 70.76L34.68 69.22L39.92 69.22C40.27 67.75 41.58 66.65 43.16 66.65C44.73 66.65 46.05 67.75 46.39 69.22L66.33 69.22L66.33 70.76ZM53.91 47.09L57.89 47.09L57.89 60.45L53.91 60.45L53.91 47.09ZM42.92 52.23L46.9 52.23L46.9 60.45L42.92 60.45L42.92 52.23ZM48.41 50.05L52.4 50.05L52.4 60.45L48.41 60.45L48.41 50.05Z" />
			</g>
		</g>
	</g>
</svg>